<?xml version="1.0" encoding="utf-8"?>
<!-- Generator: Adobe Illustrator 16.0.0, SVG Export Plug-In . SVG Version: 6.00 Build 0)  -->
<!DOCTYPE svg PUBLIC "-//W3C//DTD SVG 1.1//EN" "http://www.w3.org/Graphics/SVG/1.1/DTD/svg11.dtd">
<svg version="1.1" id="Layer_1" xmlns="http://www.w3.org/2000/svg" xmlns:xlink="http://www.w3.org/1999/xlink" x="0px" y="0px"
	 width="50px" height="50px" viewBox="0 0 50 50" enable-background="new 0 0 50 50" xml:space="preserve">
<g>
	<path fill="#FFFFFF" d="M48.682,42.297l-8.926-8.904c-0.045-0.045-0.098-0.078-0.145-0.11c-0.801,1.233-1.76,2.405-2.842,3.487
		s-2.256,2.041-3.502,2.845c0.045,0.046,0.078,0.1,0.123,0.144l8.906,8.924c1.764,1.76,4.626,1.758,6.383,0
		C50.439,46.923,50.439,44.059,48.682,42.297z"/>
	<path fill="#FFFFFF" d="M35.496,6.081C27.389-2.025,14.198-2.025,6.089,6.083c-8.117,8.106-8.118,21.306-0.006,29.415
		c8.113,8.105,21.306,8.105,29.413-0.001C43.604,27.389,43.604,14.188,35.496,6.081z M9.906,31.68
		C3.903,25.677,3.905,15.904,9.907,9.907c6.003-6.002,15.77-6.002,21.771-0.003c5.999,6,5.997,15.762,0,21.774
		C25.676,37.662,15.91,37.684,9.906,31.68z"/>
	<path fill="#FFFFFF" d="M14.18,22.466c-0.441-1.812-2.257-4.326-3.785-3.525c-1.211,0.618-0.87,3.452-0.299,5.128
		c2.552,7.621,11.833,9.232,12.798,8.268C23.843,31.389,15.928,29.637,14.18,22.466z"/>
</g>
</svg>
